{
  "accessors": [
    {
      "bufferView": 1,
      "componentType": 5126,
      "count": 120,
      "max": [
        11.656837463378906,
        0.45135200023651123,
        8.662430763244629
      ],
      "min": [
        -11.773506164550781,
        -5.360949993133545,
        -5.472019195556641
      ],
      "type": "VEC3"
    },
    {
      "bufferView": 1,
      "byteOffset": 1440,
      "componentType": 5126,
      "count": 120,
      "max": [
        1.0,
        1.0,
        1.0
      ],
      "min": [
        -1.0,
        -1.0,
        -1.0
      ],
      "type": "VEC3"
    },
    {
      "bufferView": 0,
      "componentType": 5125,
      "count": 288,
      "type": "SCALAR"
    },
    {
      "bufferView": 1,
      "byteOffset": 2880,
      "componentType": 5126,
      "count": 2568,
      "max": [
        11.959930419921875,
        -4.425128936767578,
        2.0063300132751465
      ],
      "min": [
        -12.254554748535156,
        -5.756208896636963,
        1.510390043258667
      ],
      "type": "VEC3"
    },
    {
      "bufferView": 1,
      "byteOffset": 33696,
      "componentType": 5126,
      "count": 2568,
      "max": [
        0.9999963045120239,
        0.99968421459198,
        0.9999930262565613
      ],
      "min": [
        -0.9998606443405151,
        -0.9996936917304993,
        -0.9999923706054688
      ],
      "type": "VEC3"
    },
    {
      "bufferView": 0,
      "byteOffset": 1152,
      "componentType": 5125,
      "count": 11520,
      "type": "SCALAR"
    },
    {
      "bufferView": 1,
      "byteOffset": 64512,
      "componentType": 5126,
      "count": 1500,
      "max": [
        12.301528930664063,
        0.5935119986534119,
        9.262331008911133
      ],
      "min": [
        -12.321929931640625,
        -5.649090766906738,
        -5.612100124359131
      ],
      "type": "VEC3"
    },
    {
      "bufferView": 1,
      "byteOffset": 82512,
      "componentType": 5126,
      "count": 1500,
      "max": [
        1.0,
        1.0,
        1.0
      ],
      "min": [
        -1.0,
        -1.0,
        -1.0
      ],
      "type": "VEC3"
    },
    {
      "bufferView": 0,
      "byteOffset": 47232,
      "componentType": 5125,
      "count": 3600,
      "type": "SCALAR"
    }
  ],
  "asset": {
    "extras": {
      "author": "1-3D.com (https://sketchfab.com/1-3D.com)",
      "license": "CC-BY-SA-4.0 (http://creativecommons.org/licenses/by-sa/4.0/)",
      "source": "https://sketchfab.com/3d-models/opened-quadruple-glass-doors-507d51b093674ff189ed29e1068eaf91",
      "title": "Opened quadruple glass doors"
    },
    "generator": "Sketchfab-12.73.0",
    "version": "2.0"
  },
  "bufferViews": [
    {
      "buffer": 0,
      "byteLength": 61632,
      "name": "floatBufferViews",
      "target": 34963
    },
    {
      "buffer": 0,
      "byteLength": 100512,
      "byteOffset": 61632,
      "byteStride": 12,
      "name": "floatBufferViews",
      "target": 34962
    }
  ],
  "buffers": [
    {
      "byteLength": 162144,
      "uri": "scene.bin"
    }
  ],
  "materials": [
    {
      "alphaMode": "BLEND",
      "doubleSided": true,
      "name": "Glass",
      "pbrMetallicRoughness": {
        "baseColorFactor": [
          0.9,
          0.9,
          0.9,
          0.5
        ],
        "metallicFactor": 0.0,
        "roughnessFactor": 0.9862163642533726
      }
    },
    {
      "doubleSided": true,
      "name": "cold_steel",
      "pbrMetallicRoughness": {
        "baseColorFactor": [
          0.2475,
          0.2475,
          0.2838,
          1.0
        ],
        "metallicFactor": 0.0,
        "roughnessFactor": 0.7374545572070967
      }
    },
    {
      "doubleSided": true,
      "name": "white",
      "pbrMetallicRoughness": {
        "metallicFactor": 0.0,
        "roughnessFactor": 0.9681566333438187
      }
    }
  ],
  "meshes": [
    {
      "name": "Object_0",
      "primitives": [
        {
          "attributes": {
            "NORMAL": 1,
            "POSITION": 0
          },
          "indices": 2,
          "material": 0,
          "mode": 4
        }
      ]
    },
    {
      "name": "Object_1",
      "primitives": [
        {
          "attributes": {
            "NORMAL": 4,
            "POSITION": 3
          },
          "indices": 5,
          "material": 1,
          "mode": 4
        }
      ]
    },
    {
      "name": "Object_2",
      "primitives": [
        {
          "attributes": {
            "NORMAL": 7,
            "POSITION": 6
          },
          "indices": 8,
          "material": 2,
          "mode": 4
        }
      ]
    }
  ],
  "nodes": [
    {
      "children": [
        1
      ],
      "matrix": [
        1.0,
        0.0,
        0.0,
        0.0,
        0.0,
        2.220446049250313e-16,
        -1.0,
        0.0,
        0.0,
        1.0,
        2.220446049250313e-16,
        0.0,
        0.0,
        0.0,
        0.0,
        1.0
      ],
      "name": "Sketchfab_model"
    },
    {
      "children": [
        2,
        3,
        4
      ],
      "name": "glassDoorsOpened.obj.cleaner.materialmerger.gles"
    },
    {
      "mesh": 0,
      "name": "Object_2"
    },
    {
      "mesh": 1,
      "name": "Object_3"
    },
    {
      "mesh": 2,
      "name": "Object_4"
    }
  ],
  "scene": 0,
  "scenes": [
    {
      "name": "Sketchfab_Scene",
      "nodes": [
        0
      ]
    }
  ]
}
